# xmcd CD database file
#
# Track frame offsets:
#	150
#	11414
#	24658
#	37930
#	58082
#	71489
#	82853
#	96240
#	109892
#	122213
#	133529
#	146039
#	158841
#	172164
#	183035
#	195988
#	206696
#	216689
#	231104
#	243271
#
# Disc length: 3400 seconds
#
# Revision: 0
# Processed by: cddbd v1.5.2PL0 Copyright (c) Steve Scherf et al.
# Submitted via: CDex 1.75
#
DISCID=190d4614
DTITLE=Oscar Peterson - Absolutely Essential 3CD Collection [3]
DYEAR=2016
DGENRE=Jazz
TTITLE0=Oscar Peterson - The Song Is You
TTITLE1=Oscar Peterson - The Lady Is A Tramp
TTITLE2=Oscar Peterson - Blue Moon
TTITLE3=Oscar Peterson - Come Rain Or Come Shine
TTITLE4=Oscar Peterson - Our Love Is Here To Stay
TTITLE5=Oscar Peterson - They All Laughed
TTITLE6=Oscar Peterson - Summertime
TTITLE7=Oscar Peterson - That Old Black Magic
TTITLE8=Oscar Peterson - Stormy Waether
TTITLE9=Oscar Peterson - I Won't Dance
TTITLE10=Oscar Peterson - Can't Help Lovin' Dat Man
TTITLE11=Oscar Peterson - In The Still Of The Night
TTITLE12=Oscar Peterson - It's All Right With Me
TTITLE13=Oscar Peterson - Just One Of Those Things
TTITLE14=Oscar Peterson - I've Got You Under My Skin
TTITLE15=Oscar Peterson - Ev'ry Time We Say Goodbye
TTITLE16=Oscar Peterson - I Love Paris
TTITLE17=Oscar Peterson - Witchcraft
TTITLE18=Oscar Peterson - (Love Is) The Tender Trap
TTITLE19=Oscar Peterson - The Birth Of The Blues
EXTD=YEAR: 2016
EXTT0=
EXTT1=
EXTT2=
EXTT3=
EXTT4=
EXTT5=
EXTT6=
EXTT7=
EXTT8=
EXTT9=
EXTT10=
EXTT11=
EXTT12=
EXTT13=
EXTT14=
EXTT15=
EXTT16=
EXTT17=
EXTT18=
EXTT19=
PLAYORDER=
